<?xml version="1.0" encoding="utf-8"?>
<!-- Generator: Adobe Illustrator 16.0.0, SVG Export Plug-In . SVG Version: 6.00 Build 0)  -->
<!DOCTYPE svg PUBLIC "-//W3C//DTD SVG 1.1//EN" "http://www.w3.org/Graphics/SVG/1.1/DTD/svg11.dtd">
<svg version="1.1" id="Layer_1" xmlns="http://www.w3.org/2000/svg" xmlns:xlink="http://www.w3.org/1999/xlink" x="0px" y="0px"
	 width="495.166px" height="353.833px" viewBox="0 0 495.166 353.833" enable-background="new 0 0 495.166 353.833"
	 xml:space="preserve">
<g transform="translate(0.000000,808.000000) scale(0.100000,-0.100000)">
	<path fill="#464CCA" d="M583.625,8052.729c-62.754-10.742-94.141-20.205-137.559-40.835
		c-37.393-18.062-83.398-45.571-96.719-58.462c-3.438-3.442-13.76-12.471-22.783-19.78
		c-66.201-57.168-130.684-155.61-176.68-269.097c-12.891-31.812-42.549-119.502-48.145-140.562
		c-0.85-3.442-3.438-14.185-6.016-23.638c-35.244-129.824-55.459-249.771-66.631-399.785c-3.008-39.551-3.008-219.668,0-257.92
		c7.305-94.15,15.049-156.479,29.658-240.732c12.9-72.646,27.52-143.574,30.527-148.301c1.289-1.729,4.727-15.479,8.164-30.527
		c3.447-15.039,9.023-36.963,12.891-49.004c3.447-11.602,11.182-37.822,16.768-58.032c9.893-33.091,41.27-127.241,49.873-148.306
		c2.139-4.727,5.586-13.32,8.164-19.336c2.148-6.025,11.602-29.238,20.205-51.592c38.691-96.719,113.916-250.615,168.076-342.607
		c50.293-85.107,111.338-180.977,147.881-231.27C646.389,5351,737.952,5243.529,876.37,5107.689
		c127.236-125.098,201.611-184.414,328.418-261.797c29.658-18.047,153.467-80.801,197.744-99.727
		c6.016-2.588,16.758-7.314,23.643-10.322c137.988-59.326,340.459-110.039,515.84-128.525c12.041-1.289,28.379-3.008,36.543-4.297
		c94.141-12.461,337.021-9.902,447.07,4.297c8.164,1.289,37.393,4.727,64.482,8.594c145.293,18.486,336.582,65.332,467.695,113.926
		c56.309,21.055,73.496,27.93,98.867,39.541c14.609,6.455,27.51,12.041,28.799,12.041c5.586,0,160.342,75.225,212.783,103.594
		c445.771,240.313,829.229,614.297,1112.09,1085c69.199,115.205,147.861,263.936,198.164,376.133
		c38.252,85.542,50.713,113.916,76.084,176.25c15.898,39.116,32.656,80.811,36.973,92.422c4.287,12.031,15.469,43.848,25.352,70.928
		c91.992,254.053,145.313,471.133,166.367,674.902c5.146,49.854,3.867,204.609-2.158,242.876
		c-13.311,85.532-39.121,161.196-71.777,210.635c-58.037,86.831-144.854,138.848-232.139,138.848
		c-27.939,0-83.398-10.322-116.064-21.064c-65.771-22.354-172.803-82.534-270.811-152.173
		c-161.631-115.21-199.893-140.566-277.266-182.266c-260.508-141.426-511.123-220.527-784.511-247.603
		c-55.029-5.161-269.102-5.591-309.512-0.439c-6.875,0.859-24.932,3.008-39.98,4.302c-37.402,3.442-122.939,15.049-151.309,20.205
		c-38.691,7.734-116.064,24.502-154.756,33.955c-124.229,29.668-351.641,106.611-467.266,157.334
		c-7.314,3.438-14.619,6.021-15.908,6.021s-11.172,3.867-21.924,8.599c-10.742,4.722-28.379,12.466-39.121,17.627
		c-11.172,4.727-28.799,12.031-39.98,16.763c-17.188,6.45-51.582,21.919-129.385,56.743c-10.752,4.731-33.535,15.474-50.723,23.213
		c-17.627,8.169-32.246,14.619-33.535,14.619c-0.859,0-18.477,8.159-39.121,17.617c-21.064,9.888-57.168,26.23-80.811,36.973
		c-45.566,20.2-65.342,29.663-107.471,48.574c-14.189,6.45-42.129,18.911-62.324,27.944c-53.74,23.638-68.779,30.088-90.273,39.976
		c-23.223,10.322-141.006,58.032-197.744,80.386c-36.543,14.185-133.691,47.715-150.449,52.012
		c-3.447,0.864-14.189,3.442-23.652,6.021c-18.916,5.161-19.775,5.161-55.879,14.189
		C786.536,8059.608,666.594,8067.343,583.625,8052.729z"/>
</g>
</svg>
