<?xml version="1.0" encoding="utf-8"?>
<!-- Generator: Adobe Illustrator 16.0.0, SVG Export Plug-In . SVG Version: 6.00 Build 0)  -->
<!DOCTYPE svg PUBLIC "-//W3C//DTD SVG 1.1//EN" "http://www.w3.org/Graphics/SVG/1.1/DTD/svg11.dtd">
<svg version="1.1" id="Layer_1" xmlns="http://www.w3.org/2000/svg" xmlns:xlink="http://www.w3.org/1999/xlink" x="0px" y="0px"
	 width="1140px" height="808px" viewBox="0 0 1140 808" enable-background="new 0 0 1140 808" xml:space="preserve">
<g transform="translate(0.000000,808.000000) scale(0.100000,-0.100000)">
	<path fill="#D442CA" d="M1315.002,8050.001c-146.006-25-219.004-47.002-320-95c-87.002-42.002-194.004-106.006-225-136.006
		c-7.998-7.998-32.002-28.994-52.998-45.996C563,7640.002,413,7410.998,305.999,7147.004c-30-74.004-98.994-278.008-112.002-327.002
		c-1.992-7.998-7.998-32.998-13.994-55c-82.002-302.002-129.004-581.006-155-930c-7.002-92.002-7.002-511.006,0-600
		c17.002-219.004,35-364.004,68.994-560c30-169.004,64.004-334.004,71.006-345c2.998-4.004,10.996-36.006,18.994-71.006
		c8.008-35,21.006-85.996,30-113.994c8.008-27.002,26.006-87.998,39.004-135c22.998-77.002,95.996-296.006,115.996-345
		c5-11.006,13.008-31.006,19.004-45c5-14.004,27.002-68.008,47.002-120c90-225,265-583.008,390.996-797.002
		c117.002-197.998,259.004-421.006,344.004-537.998c290.996-400,503.994-650,825.996-966.006
		C2292.004,908,2465.002,770.002,2760.002,590.002c68.994-42.002,356.992-188.008,460-232.002c13.994-6.006,38.994-17.002,55-24.004
		c320.996-137.998,791.992-255.996,1200-298.994c27.998-3.008,65.996-7.002,85-10c218.994-29.004,783.994-23.008,1040,10
		c18.994,2.998,86.992,10.996,150,20C6088,98,6533,206.995,6838,320.002c130.996,48.994,170.996,65,230,91.992
		c33.994,15,63.994,28.008,67.002,28.008c12.998,0,372.998,175,495,240.996c1036.992,559.004,1928.994,1429.004,2586.992,2524.004
		c161.005,267.998,344.003,613.994,461.005,875c88.994,198.994,117.998,265,177.002,410c36.992,90.996,75.996,187.998,85.996,215
		c10,27.998,35.996,102.002,59.004,165c213.994,590.996,337.998,1095.996,386.992,1570c12.002,115.996,9.004,475.996-5,565
		c-30.996,198.994-90.996,375-166.992,490c-135,202.002-337.002,322.998-540,322.998c-65,0-194.004-24.004-270-49.004
		c-153.007-51.992-402.001-191.992-629.999-353.994c-376.006-267.998-465-327.002-645-424.004
		c-606.006-328.994-1189.004-512.998-1825-575.996c-128.008-12.002-626.006-12.998-720-1.006c-16.006,2.002-58.008,7.002-93.008,10
		c-86.992,8.008-285.996,35-351.992,47.002c-90,17.998-270,57.002-360,79.004C5490.998,6618.996,4961.994,6798,4693,6915.998
		c-17.002,7.998-34.004,14.004-37.002,14.004s-25.996,8.994-50.996,20c-25,10.996-66.006,28.994-91.006,40.996
		c-25.996,11.006-67.002,27.998-92.998,39.004c-40,15-120,50.996-300.996,132.002c-25,10.996-78.008,35.996-118.008,53.994
		c-40.996,19.004-75,34.004-77.998,34.004c-2.002,0-42.998,18.994-90.996,40.996c-49.004,22.998-132.998,61.006-187.998,86.006
		c-106.006,46.992-152.002,68.994-250,112.998c-33.008,15-98.008,43.994-145,65c-125,55-160,70-210,92.998
		c-54.004,24.004-327.998,135-460,187.001c-85,32.998-311.006,110.996-350,120.996c-7.998,2.002-32.998,7.998-55,14.004
		c-44.004,12.002-46.006,12.002-130,32.998C1787.004,8065.998,1508,8083.996,1315.002,8050.001z"/>
</g>
</svg>
