<?xml version="1.0" encoding="utf-8"?>
<!-- Generator: Adobe Illustrator 16.0.0, SVG Export Plug-In . SVG Version: 6.00 Build 0)  -->
<!DOCTYPE svg PUBLIC "-//W3C//DTD SVG 1.1//EN" "http://www.w3.org/Graphics/SVG/1.1/DTD/svg11.dtd">
<svg version="1.1" id="Layer_1" xmlns="http://www.w3.org/2000/svg" xmlns:xlink="http://www.w3.org/1999/xlink" x="0px" y="0px"
	 width="481.068px" height="428.011px" viewBox="-30.78 6.687 481.068 428.011"
	 enable-background="new -30.78 6.687 481.068 428.011" xml:space="preserve">
<g transform="translate(0.000000,808.000000) scale(0.100000,-0.100000)">
	<path fill="#464CCA" d="M2873.127,3801.635c55.781-30.703,86.221-42.861,133.037-53.779c40.498-9.189,93.613-16.328,112.07-14.561
		c4.834,0.557,18.535,1.182,30.137,1.27c87.412,3.467,199.189,40.264,305.879,100.352c29.902,16.855,107.744,66.953,125.244,79.932
		c2.813,2.158,11.533,8.945,19.443,14.736c108.467,79.561,199.023,160.791,301.24,271.133
		c27.002,29.063,139.258,169.931,160.742,201.708c52.959,78.193,85.742,131.768,126.816,206.768
		c35.186,64.854,67.959,129.434,68.545,135c0.068,2.168,5.947,15.059,12.646,28.965c6.67,13.906,15.977,34.531,20.459,46.357
		c4.521,11.23,14.824,36.553,23.037,55.84c12.891,32.041,47.031,125.225,53.418,147.061c1.279,5.029,3.936,13.906,5.674,20.215
		c2.07,6.045,9.141,30.098,16.348,52.939c30.01,99.756,67.09,266.992,82.051,372.686c13.711,97.91,25.713,210.918,28.477,273.027
		c9.316,212.432,4.688,353.525-18.916,546.035c-21.543,177.119-42.744,269.863-93.691,409.404
		c-11.953,32.598-69.668,158.843-92.51,201.23c-3.096,5.767-8.545,16.162-12.061,22.803
		c-70.938,132.393-197.686,298.223-323.33,421.978c-8.613,8.511-20.313,20.034-25.898,26.138
		c-65.859,68.408-257.402,217.773-352.324,275.244c-7.188,4.072-32.188,19.604-55.771,33.467
		c-125.156,76.084-303.955,158.657-436.777,202.363c-57.158,18.618-74.883,23.955-101.963,30.684
		c-15.449,4.053-29.023,7.725-30.029,8.535c-4.365,3.477-172.275,41.084-230.977,51.582
		c-498.379,89.854-1031.328,36.323-1545.888-155.518c-125.913-46.982-280.117-114.282-389.385-170.679
		c-83.213-43.066-110.64-57.485-169.331-90.43c-36.807-20.679-75.889-42.842-86.504-49.238
		c-10.854-6.729-39.434-24.644-64.043-39.668c-230.259-141.357-407.241-277.91-550.698-424.15
		c-35.088-35.776-130.518-157.607-149.663-191.289c-42.896-75.186-69.849-150.444-75.122-209.468
		c-8.73-104.063,26.748-198.853,95.024-253.242c21.851-17.412,71.646-43.901,103.896-55.859
		c65.366-23.516,186.582-43.145,306.616-49.756c198.213-10.625,243.931-14.639,330.435-30.244
		c291.865-51.738,537.163-146.045,767.847-295.244c46.26-30.264,213.945-163.33,242.339-192.549
		c4.834-4.941,17.617-17.891,28.584-28.271c27.114-26.006,86.777-88.389,105.742-110.098
		c25.439-30.156,75.503-91.494,99.873-122.998c78.672-100.625,208.574-302.51,267.388-414.229
		c3.584-7.256,7.686-13.828,8.687-14.619c1.006-0.811,6.338-10,11.792-20.4c5.459-10.381,14.419-27.432,19.609-38.174
		c5.791-10.645,15.024-27.344,20.82-38.018c9.424-15.752,26.689-49.287,65.83-125.01c5.459-10.391,16.582-32.998,25.205-49.756
		c8.696-17.383,16.104-31.523,17.109-32.334c0.679-0.537,9.37-17.9,19.619-38.154c10.313-20.869,28.369-56.143,40.171-79.277
		c23.047-44.199,32.607-63.926,53.77-104.961c7.08-13.887,21.167-41.045,31.323-60.693c27.305-51.982,35.054-66.387,45.703-87.529
		c11.719-22.539,74.106-133.261,104.551-186.093c19.746-33.867,74.814-120.625,85.254-134.434
		c2.148-2.822,8.936-11.533,14.736-19.463c11.572-15.811,12.256-16.338,34.863-45.908
		C2710.149,3922.7,2799.133,3841.918,2873.127,3801.635z"/>
</g>
</svg>
