<?xml version="1.0" encoding="utf-8"?>
<!-- Generator: Adobe Illustrator 16.0.0, SVG Export Plug-In . SVG Version: 6.00 Build 0)  -->
<!DOCTYPE svg PUBLIC "-//W3C//DTD SVG 1.1//EN" "http://www.w3.org/Graphics/SVG/1.1/DTD/svg11.dtd">
<svg version="1.1" id="Layer_1" xmlns="http://www.w3.org/2000/svg" xmlns:xlink="http://www.w3.org/1999/xlink" x="0px" y="0px"
	 width="914.298px" height="801.261px" viewBox="0 0 914.298 801.261" enable-background="new 0 0 914.298 801.261"
	 xml:space="preserve">
<g id="svgg">
	<path id="path0" fill="none" d="M0,0.003"/>
	<path id="path1" fill="none" d="M0,0.003"/>
	<path id="path2" fill="none" d="M0,0.003"/>
	<path id="path3" fill="#2C7AFD" d="M453.296,0.325c-0.149,0.131-3.479,0.461-7.4,0.73C419.843,2.827,385.739,8.86,364.82,15.39
		c-3.096,0.967-8.331,2.495-11.633,3.399c-3.304,0.902-6.343,1.909-6.757,2.232c-0.413,0.329-3.116,1.313-6.005,2.191
		c-2.89,0.883-6.687,2.269-8.436,3.083c-1.751,0.813-3.441,1.48-3.754,1.48c-3.262,0-36.214,15.137-53.414,24.535
		c-5.529,3.021-10.163,5.493-10.299,5.493c-0.589,0-24.84,15.361-26.235,16.618c-0.852,0.768-1.898,1.397-2.323,1.397
		s-1.385,0.677-2.132,1.503c-0.748,0.823-1.64,1.5-1.984,1.5c-0.346,0-1.221,0.485-1.949,1.081c-0.728,0.591-4.871,3.691-9.203,6.89
		c-8.567,6.319-18.934,14.601-24.317,19.429c-0.46,0.411-3.708,3.282-7.215,6.379c-12.026,10.62-31.458,30.537-47.605,48.794
		c-3.457,3.908-14.612,17.745-18.46,22.895c-1.848,2.479-3.534,4.673-3.743,4.88c-0.703,0.689-7.121,9.365-7.882,10.654
		c-0.411,0.699-3.815,5.764-7.56,11.259c-28.108,41.222-50.61,87.312-68.084,139.477c-2.697,8.052-5.65,17.341-6.563,20.643
		c-0.913,3.304-2.117,7.527-2.681,9.384c-8.654,28.565-18.067,79.21-21.697,116.728c-0.678,7.02-1.371,13.944-1.538,15.39
		c-2.637,22.784-3.976,88.482-2.263,111.098c0.172,2.27,0.522,7.505,0.778,11.638c0.592,9.491,3.179,34.079,4.107,39.031
		c0.388,2.063,0.871,5.105,1.074,6.756c0.203,1.654,0.701,4.523,1.106,6.382c0.409,1.857,0.92,4.56,1.138,6.003
		c1.577,10.348,6.372,27.769,11.574,42.04c15.172,41.63,40.293,65.314,69.591,65.606c26.451,0.268,48.268-17.966,86.158-71.987
		c3.764-5.366,7.042-9.929,7.287-10.138c0.24-0.202,1.999-2.583,3.905-5.282c12.478-17.677,41.543-47.503,64.466-66.147
		c2.71-2.206,6.38-5.191,8.149-6.635c1.773-1.446,4.453-3.475,5.958-4.509c1.502-1.031,5.27-3.734,8.37-6.006
		c16.021-11.726,39.849-25.537,59.636-34.564c25.232-11.51,52.735-19.979,86.359-26.6c3.467-0.682,26.555-4.043,30.781-4.479
		c7.277-0.75,19.6-1.807,26.806-2.295c8.987-0.604,57.163-0.65,65.898-0.058c3.511,0.239,13.135,0.791,21.395,1.228
		c8.255,0.44,15.853,0.918,16.888,1.07c1.033,0.145,4.92,0.479,8.635,0.732c9.639,0.669,14.637,1.07,24.021,1.941
		c4.543,0.421,10.113,0.927,12.383,1.128c8.172,0.724,29.588,2.817,37.91,3.712c2.51,0.271,13.852,1.281,33.777,3.005
		c11.182,0.969,19.25,1.519,38.66,2.633c10.814,0.618,56.807,0.447,59.676-0.225c0.828-0.191,3.529-0.569,6.006-0.84
		c86.488-9.426,121.73-65.675,107.742-171.957c-5.732-43.558-15.885-78.678-34.172-118.229c-4.531-9.806-6.914-14.5-14.055-27.701
		c-10.545-19.493-40.729-64.053-47.85-70.638c-0.221-0.205-2.096-2.401-4.156-4.877c-15.113-18.14-31.986-35.614-53.326-55.219
		c-33.793-31.045-79.939-62.712-126.627-86.899c-26.354-13.654-59.475-27.043-75.571-30.549c-0.663-0.145-3.848-0.954-7.079-1.797
		c-11.048-2.884-19.801-4.397-39.913-6.898C497.338,0.778,454.404-0.66,453.296,0.325"/>
	<path id="path4" fill="#2C7AFD" d="M0,0.003"/>
</g>
</svg>
