<?xml version="1.0" encoding="utf-8"?>
<!-- Generator: Adobe Illustrator 16.0.0, SVG Export Plug-In . SVG Version: 6.00 Build 0)  -->
<!DOCTYPE svg PUBLIC "-//W3C//DTD SVG 1.1//EN" "http://www.w3.org/Graphics/SVG/1.1/DTD/svg11.dtd">
<svg version="1.1" id="Layer_1" xmlns="http://www.w3.org/2000/svg" xmlns:xlink="http://www.w3.org/1999/xlink" x="0px" y="0px"
	 width="788.894px" height="710.497px" viewBox="0 0 788.894 710.497" enable-background="new 0 0 788.894 710.497"
	 xml:space="preserve">
<g>
	<g>
		<path fill="#0F1E4E" d="M562.762,426.194c0,0,16.854,6.317,21.067,29.489c4.214,23.172,1.054,75.834,1.054,75.834
			s2.106,33.703,0,41.077c-2.107,7.372-25.281,4.214-25.281,4.214l-1.055-6.321l9.482-7.372l5.266-27.385l-36.868-92.686
			L562.762,426.194z"/>
		
			<linearGradient id="SVGID_1_" gradientUnits="userSpaceOnUse" x1="354.707" y1="376.5605" x2="386.3046" y2="255.4369" gradientTransform="matrix(-1 0 0 1 962.374 0)">
			<stop  offset="0.0473" style="stop-color:#0F2B79"/>
			<stop  offset="1" style="stop-color:#0F1E4E"/>
		</linearGradient>
		<path fill="url(#SVGID_1_)" d="M632.285,282.951c5.267,3.16,18.962,12.64,44.242,42.131c25.28,29.49,29.496,37.917,20.015,50.556
			c-9.479,12.639-48.455,36.862-48.455,36.862l-16.855-13.691l18.962-26.33l-70.576-28.438c0,0-7.375,85.313-16.854,97.952
			c-9.481,12.639-28.441,18.958-35.815-3.16c-7.373-22.118-22.122-92.686-18.961-115.857c3.161-23.17-1.053-17.904,3.161-18.958
			C515.36,302.965,632.285,282.951,632.285,282.951z"/>
		
			<linearGradient id="SVGID_2_" gradientUnits="userSpaceOnUse" x1="271.918" y1="33.5928" x2="254.0131" y2="107.3188" gradientTransform="matrix(-1 0 0 1 962.374 0)">
			<stop  offset="0.0473" style="stop-color:#0F2B79"/>
			<stop  offset="1" style="stop-color:#0F1E4E"/>
		</linearGradient>
		<path fill="url(#SVGID_2_)" d="M624.658,58.523c12.431-5.945,82.306-38.978,102.432-39.936
			c22.121-1.055,27.389,4.212,33.709,20.011c6.32,15.8,14.748,49.503,14.748,49.503s-29.495,20.011-29.495,16.852
			S730.25,85.994,730.25,85.994l-41.083,34.758c0,0,2.062,2.698,3.294,8.336C678.486,99.287,653.317,76.525,624.658,58.523z"/>
		
			<linearGradient id="SVGID_3_" gradientUnits="userSpaceOnUse" x1="386.4819" y1="200.7949" x2="397.2094" y2="359.0258" gradientTransform="matrix(-1 0 0 1 962.374 0)">
			<stop  offset="0.0473" style="stop-color:#0F2B79"/>
			<stop  offset="1" style="stop-color:#0F1E4E"/>
		</linearGradient>
		<path fill="url(#SVGID_3_)" d="M478.492,115.486c16.854-23.172,144.265-56.049,144.265-56.049s0.671-0.325,1.901-0.914
			c28.659,18.002,53.828,40.764,67.804,70.564c1.94,8.893,1.817,25.1-11.72,49.592c-22.121,40.024-56.883,90.579-56.883,90.579
			l18.96,16.853c0,0-23.175,16.854-71.63,27.384c-48.456,10.532-69.523,1.054-69.523,1.054l-8.427-65.301
			c0,0-26.334-86.366-26.334-89.525C466.905,156.563,461.636,138.657,478.492,115.486z"/>
		<path fill="#FFFFFF" d="M563.929,46.907c0,0-6.588-5.27-6.149,5.271c0.439,10.541,8.345,18.885,8.345,18.885L563.929,46.907z"/>
		<path fill="#FFFFFF" d="M628.058,50.86c0,0,4.831-6.587,6.149,1.318c1.317,7.905-11.42,22.837-11.42,23.716
			C622.788,76.771,628.058,50.86,628.058,50.86z"/>
		<path fill="#FFFFFF" d="M616.638,94.339c0,0,15.813-30.303,10.98-52.262c-4.831-21.959-32.064-33.378-45.241-26.79
			c-13.178,6.587-17.569,28.986-18.888,38.648c-1.317,9.661,3.953,36.891,3.953,36.891l23.28,21.08L616.638,94.339z"/>
		<path fill="#602B32" d="M624.983,65.792c0-1.756-1.317-19.324-1.317-19.324s-5.271-3.074-9.224-9.662
			c0,0,0.878,6.148-12.738,7.905c-13.617,1.757-18.01,0-18.01,0l13.618-3.513l-23.28,3.513c0,0-6.149,3.953-7.028,4.832
			c-0.879,0.877-3.514,14.93-3.514,14.93s-6.148-45.234,19.766-53.14l-13.177,1.317l21.962-7.026l-15.372-3.513
			c0,0,20.203-6.588,36.895,3.513c16.691,10.103,18.448,33.377,17.131,44.357c-1.317,10.98-4.832,20.642-4.832,20.642
			L624.983,65.792z"/>
		<path fill="#FF97B8" d="M593.797,83.799l-19.328-9.661C574.469,74.138,577.545,90.826,593.797,83.799z"/>
		<g>
			<path fill="#0F1E4E" d="M595.33,62.208c0,0,7.17,11.143,19.327,9.224c16.69-2.637,18.008-18.446,18.008-18.446L595.33,62.208z
				 M607.686,63.069l15.07-3.632C617.374,69.258,607.686,63.069,607.686,63.069z"/>
			<path fill="#0F1E4E" d="M559.638,50.733c0,0,0.281,15.862,16.765,19.582c12.004,2.708,19.887-7.942,19.887-7.942L559.638,50.733z
				 M569.104,57.819l14.799,4.607C583.903,62.426,573.833,67.97,569.104,57.819z"/>
		</g>
		
			<linearGradient id="SVGID_4_" gradientUnits="userSpaceOnUse" x1="484.6841" y1="208.2061" x2="404.6366" y2="80.7621" gradientTransform="matrix(-1 0 0 1 962.374 0)">
			<stop  offset="0.0473" style="stop-color:#0F2B79"/>
			<stop  offset="1" style="stop-color:#0F1E4E"/>
		</linearGradient>
		<path fill="url(#SVGID_4_)" d="M494.292,103.899c0,0-21.069-3.159-37.922,33.704c-16.854,36.864-29.495,82.154-17.908,105.326
			c11.588,23.17,46.35,45.288,46.35,45.288l30.548-33.703l-24.228-28.438c0,0,35.814-28.439,35.814-57.929
			C526.947,138.657,519.574,102.847,494.292,103.899z"/>
		<path fill="#0F1E4E" d="M686.007,384.063c0,0-34.761,13.69-35.814-11.585l-28.441,41.075l-12.641-2.105l-3.159,11.586l6.319,5.265
			c0,0-6.319,4.213-7.375,12.64c-1.052,8.426,7.375,29.49,7.375,29.49l8.427-8.425l1.054-23.172L686.007,384.063z"/>
		
			<linearGradient id="SVGID_5_" gradientUnits="userSpaceOnUse" x1="368.4126" y1="168.1436" x2="371.0755" y2="86.2539" gradientTransform="matrix(-1 0 0 1 962.374 0)">
			<stop  offset="0.027" style="stop-color:#BBE6FA"/>
			<stop  offset="1" style="stop-color:#8DC5EB"/>
		</linearGradient>
		<path fill="url(#SVGID_5_)" d="M616.638,94.339l-23.525,11.229l-25.67-14.741c0,0-12.285,52.023-14.949,61.346
			c-2.662,9.319,37.955,94.538,37.955,94.538s38.619-77.895,43.28-93.873S616.638,94.339,616.638,94.339z"/>
		<path fill="#0B0606" d="M499.738,237.435c1.484-0.655,59.832,40.032,59.832,40.032s20.243-8.098,23.842-9.446
			c3.6-1.35,8.097-0.9,7.199,1.799c-0.901,2.698-9.447,49.479-11.248,47.679c-1.799-1.8-10.346,2.698-19.793-4.049
			c-9.447-6.746-11.246-10.794-11.246-10.794s-53.084,19.342-82.773,3.148C465.55,305.804,445.755,261.272,499.738,237.435z"/>
		
			<linearGradient id="SVGID_6_" gradientUnits="userSpaceOnUse" x1="384.5396" y1="287.7891" x2="355.3008" y2="303.9828" gradientTransform="matrix(-1 0 0 1 962.374 0)">
			<stop  offset="0.0909" style="stop-color:#26304E"/>
			<stop  offset="0.9832" style="stop-color:#0B0606"/>
		</linearGradient>
		<path fill="url(#SVGID_6_)" d="M587.911,268.021c0,0,1.35-4.948,7.647-1.8s22.494,13.943,21.594,18.442
			c-0.899,4.498-8.547,2.697-8.547,2.697s8.096,8.997,3.598,11.247c-4.498,2.249-9.446,0.448-9.446,0.448s8.097,7.197,3.147,9.896
			c-4.947,2.7-9.896,1.351-9.896,1.351s4.499,4.497-1.35,5.396c-5.848,0.9-18.443,3.148-20.692,1.35
			c-2.25-1.799-0.45-13.493,0.898-13.942c1.351-0.45-1.349-6.747,4.498-13.495c5.848-6.747,2.7-7.195,4.049-11.694
			C584.761,273.416,587.911,268.021,587.911,268.021z"/>
		<path fill="#0B0606" d="M781.888,58.889c-0.393,1.182-14.582,0-22.466,8.276c-7.881,8.276-16.159,27.982-14.978,28.375
			s24.438,23.646,24.438,23.646s-4.73,1.183-7.883,1.972c-3.154,0.787-7.096,3.151-5.125,6.699c1.971,3.547,3.154,5.517,3.154,5.517
			s-0.787,1.576-4.336,6.307c-3.547,4.73,1.971,14.188,5.518,14.976s25.226-7.095,27.985-12.218
			c2.759-5.122-3.548-26.798-3.548-26.798L781.888,58.889z"/>
		<path fill="#AE354C" d="M593.113,105.567l6.658,3.994l-5.995,10.652c0,0,96.551,18.642,142.495-40.611l20.641,3.328
			c0,0-5.326,27.962-5.326,25.965s-73.703,56.12-161.805,13.316l-5.99-11.319L593.113,105.567z"/>
	</g>
</g>
<g>
	<g>
		<path fill="#0B0606" d="M261.028,168.124c0,0,11.402-4.884,16.287-22.256c4.887-17.372,9.773-32.569,26.601-35.282
			c16.832-2.716,24.976,7.056,27.688,24.426c2.613,16.734-2.829,34.975-9.541,45.028c-0.256,0.382-0.514,0.755-0.775,1.113
			C314.232,190.923,261.028,168.124,261.028,168.124z"/>
		<g>
			<linearGradient id="SVGID_7_" gradientUnits="userSpaceOnUse" x1="285.3228" y1="263.626" x2="211.6445" y2="365.5848">
				<stop  offset="0" style="stop-color:#6D2632"/>
				<stop  offset="1" style="stop-color:#AE354C"/>
			</linearGradient>
			<path fill="url(#SVGID_7_)" d="M252.892,195.227C250.693,195.777,78.661,315.637,0,399.238c0,0,252.163,34.914,241.713,183.964
				c0,0,123.947-255.425,140.449-286.774c16.502-31.353,7.702-66,0.549-78.652c-7.151-12.648-25.853-26.399-25.853-26.399
				L252.892,195.227z"/>
			<path fill="#FFFFFF" d="M287.847,513.729l1.152,44.302l24.167-2.876c0,0,4.603-44.878,2.879-43.727
				C314.315,512.578,286.698,514.305,287.847,513.729z"/>
			<linearGradient id="SVGID_8_" gradientUnits="userSpaceOnUse" x1="356.8018" y1="589.8291" x2="358.2903" y2="458.8506">
				<stop  offset="0" style="stop-color:#FFFFFF"/>
				<stop  offset="1" style="stop-color:#BBE6FA"/>
			</linearGradient>
			<path fill="url(#SVGID_8_)" d="M343.663,489.565l1.15,44.302l24.168-2.876c0,0,4.604-44.88,2.877-43.727
				C370.132,488.413,342.514,490.141,343.663,489.565z"/>
			<linearGradient id="SVGID_9_" gradientUnits="userSpaceOnUse" x1="331.6685" y1="510.2773" x2="331.6685" y2="341.0469">
				<stop  offset="0" style="stop-color:#2D3577"/>
				<stop  offset="1" style="stop-color:#192344"/>
			</linearGradient>
			<path fill="url(#SVGID_9_)" d="M280.367,367.59c0,1.729-0.574,153.619-0.574,153.619l93.793-4.602
				c0,0,11.508-104.141,9.782-139.811c-1.727-35.673-9.782-40.274-27.044-51.78L280.367,367.59z"/>
			
				<linearGradient id="SVGID_10_" gradientUnits="userSpaceOnUse" x1="3276.0688" y1="255.3115" x2="3363.6118" y2="255.3115" gradientTransform="matrix(-1 0 0 1 3698.5635 0)">
				<stop  offset="0" style="stop-color:#2D3577"/>
				<stop  offset="1" style="stop-color:#192344"/>
			</linearGradient>
			<path fill="url(#SVGID_10_)" d="M356.817,193.836c0,0,4.029-2.301,20.717,9.782c16.687,12.081,53.511,43.15,43.154,74.219
				c-7.479,22.438-80.556,39.125-80.556,39.125l-5.181-17.262c0,0,60.418-16.108,61.569-30.492s-45.378-37.397-45.378-37.397
				L356.817,193.836z"/>
			
				<linearGradient id="SVGID_11_" gradientUnits="userSpaceOnUse" x1="762.6479" y1="259.2051" x2="859.5581" y2="259.2051" gradientTransform="matrix(1 0 0 1 -576.7305 0)">
				<stop  offset="0" style="stop-color:#2D3577"/>
				<stop  offset="1" style="stop-color:#192344"/>
			</linearGradient>
			<path fill="url(#SVGID_11_)" d="M251.596,197.288c0,0-4.028-2.303-20.715,9.783c-16.687,12.08-53.515,43.149-43.157,74.217
				c7.479,22.439,92.883,40.01,92.883,40.01l2.22-16.646c0,0-69.786-17.609-70.935-31.992
				c-1.153-14.383,41.431-36.824,41.431-36.824L251.596,197.288z"/>
			<linearGradient id="SVGID_12_" gradientUnits="userSpaceOnUse" x1="246.9229" y1="275.8442" x2="385.3633" y2="275.8442">
				<stop  offset="0" style="stop-color:#2D3577"/>
				<stop  offset="1" style="stop-color:#192344"/>
			</linearGradient>
			<path fill="url(#SVGID_12_)" d="M289.118,180.42c-0.513,3.141-42.195,16.539-42.195,16.539l5.955,38.697l38.704,83.353
				l-17.866,53.583l111.647-37.21l-47.637-31.259l25.307-110.141l-41.681-14.886L289.118,180.42z"/>
			<path fill="#FFFFFF" d="M289.118,180.42c0,0-4.633-27.019-2.703-38.984c1.93-11.965,9.65-26.632,25.865-22.773
				c16.212,3.859,15.055,18.143,15.055,27.79c0,9.649-0.388,31.652-0.388,31.652l-17.755,58.667L289.118,180.42z"/>
			<path fill="#FF97B8" d="M300.313,165.752l16.212-3.859C316.524,161.893,312.28,173.856,300.313,165.752z"/>
			<linearGradient id="SVGID_13_" gradientUnits="userSpaceOnUse" x1="265.9795" y1="625.9209" x2="317.769" y2="625.9209">
				<stop  offset="0" style="stop-color:#171223"/>
				<stop  offset="1" style="stop-color:#0F1E4E"/>
			</linearGradient>
			<path fill="url(#SVGID_13_)" d="M284.971,542.497c3.454,0,32.798-1.152,32.798-1.152s-6.328,82.85-21.29,135.78
				c0,0,5.178,17.836,2.876,25.893l-4.029,1.727l-0.574-8.055l-4.601,11.506l-22.442,2.302l-1.729-3.45l13.238-10.933l4.603-24.167
				L284.971,542.497z"/>
			<path fill="#171223" d="M341.362,526.961l31.647-4.025l-8.898,111.248l4.604,36.821l-4.029,3.451h-12.661c0,0,0-40.848,0-42.574
				S341.362,526.961,341.362,526.961z"/>
			<path fill="#AE354C" d="M289.118,180.42c-0.47,2.158-10.371,18.106-10.371,18.106l-31.824-1.567L289.118,180.42z"/>
			<polygon fill="#AE354C" points="326.947,178.104 332.654,192.477 363.034,193.982 			"/>
		</g>
		<path fill="#0B0606" d="M282.648,158.757c0.495,1.922,11.909-14.886,25.308-22.328c13.397-7.442,15.383-5.952,15.383-5.952
			s8.929,14.389,0.495,29.768c-8.434,15.381-20.345,16.371-20.345,16.371s21.338-2.479,24.313-8.435
			c2.98-5.951,4.469-27.286,2.484-35.721c-1.986-8.434-12.406-18.356-17.862-18.356c-5.46,0-14.887,1.488-19.849,6.945
			C287.611,126.508,278.679,143.376,282.648,158.757z"/>
		<path fill="#AE354C" d="M311.223,138.795l0.1-0.272c0,0-2.249,0.036-5.51,0.339c-3.271,0.138-5.503,0.406-5.503,0.406l0.132,0.256
			c-8.789,1.368-19.625,4.613-19.109,12.256c0.864,12.772,22.715,9.695,22.715,9.695l2.64-9.691l3.918,9.246
			c0,0,22.065,0.115,21.204-12.66C331.294,140.726,320.119,138.971,311.223,138.795z M288.493,150.893c0,0,5.931-7.216,13.549-1.316
			C302.042,149.576,296.881,156.341,288.493,150.893z M310.991,148.973c6.758-6.873,13.604-0.519,13.604-0.519
			C317.013,154.981,310.991,148.973,310.991,148.973z"/>
		<path fill="#FFFFFF" d="M282.828,304.651c0.555-0.832,0.834-4.992,4.715-6.379c3.885-1.388,11.097-3.05,9.712-0.557
			c-1.387,2.497-8.323,4.161-8.323,4.161s9.708-4.438,9.154-1.386c-0.554,3.051-9.154,5.547-9.154,5.547s11.374-3.883,9.432-0.834
			c-1.94,3.055-8.321,5.825-8.321,5.825s8.602-3.604,7.766-1.106c-0.831,2.497-6.934,5.548-6.934,5.548l0.832,2.221l-1.109,6.658
			c0,0-9.158,1.107-9.989-3.052L282.828,304.651z"/>
		<path fill="#FFFFFF" d="M342.202,297.439c0,0,1.384-2.774-3.608-2.495c-4.994,0.278-11.375,3.049-9.435,4.437
			s8.88-0.833,8.049-0.555c-0.837,0.279-9.993,3.884-7.216,5.272c2.773,1.386,8.325-0.833,8.325-0.833s-8.88,4.439-5.551,4.993
			c3.331,0.555,10.269-0.833,9.437-1.11c-0.833-0.275-8.602,4.991-4.44,4.717c4.161-0.277,8.046-2.221,8.046-2.221l5.269,2.775
			C351.077,312.42,345.809,299.105,342.202,297.439z"/>
	</g>
</g>
</svg>
