<?xml version="1.0" encoding="utf-8"?>
<!-- Generator: Adobe Illustrator 16.0.0, SVG Export Plug-In . SVG Version: 6.00 Build 0)  -->
<!DOCTYPE svg PUBLIC "-//W3C//DTD SVG 1.1//EN" "http://www.w3.org/Graphics/SVG/1.1/DTD/svg11.dtd">
<svg version="1.1" id="Layer_1" xmlns="http://www.w3.org/2000/svg" xmlns:xlink="http://www.w3.org/1999/xlink" x="0px" y="0px"
	 width="593.44px" height="397.103px" viewBox="-39.29 51.592 593.44 397.103"
	 enable-background="new -39.29 51.592 593.44 397.103" xml:space="preserve">
<g>
	<path fill="#FFFFFF" d="M19.688,448.022c12.204,2.255,24.487-1.222,33.7-9.536l108.199-97.657
		c13.252-11.961,16.85-31.428,8.743-47.338l-15.973-31.351c-4.252-8.343-1.572-18.484,6.232-23.587
		c21.07-13.776,43.557-26.776,66.834-38.637s47.01-22.411,70.543-31.36c8.716-3.315,18.496,0.478,22.747,8.823l15.974,31.348
		c8.105,15.909,25.967,24.443,43.436,20.752l142.604-30.134c12.143-2.566,22.174-10.459,27.525-21.658
		c5.353-11.197,5.186-23.964-0.448-35.022l-24.07-47.238c-16.8-32.97-62.188-48.159-127.809-42.771
		c-63.097,5.181-138.331,28.663-211.845,66.118C112.567,156.232,49.348,203.296,8.07,251.297
		c-21.132,24.573-35.349,48.108-42.333,69.609c-7.206,22.177-6.717,42.189,1.812,58.932l24.07,47.237
		C-2.746,438.133,7.485,445.767,19.688,448.022L19.688,448.022z M150.473,328.515L42.274,426.173
		c-5.35,4.83-12.484,6.849-19.572,5.538c-5.949-1.098-11.084-4.404-14.518-9.234l142.991-130.045l4.376,8.59
		C160.259,310.26,158.168,321.569,150.473,328.515L150.473,328.515z M535.284,170.537c-3.108,6.504-8.935,11.089-15.987,12.579
		l-142.604,30.133c-10.146,2.146-20.52-2.812-25.228-12.051l-4.021-7.891l188.892-39.915c1.556,4.647,1.607,9.615,0.09,14.285
		C536.113,168.645,535.731,169.601,535.284,170.537L535.284,170.537z M-17.672,372.306c-13.346-26.194,0.621-66.358,38.318-110.195
		c39.903-46.401,101.33-92.057,172.964-128.557c71.635-36.499,144.677-59.359,205.671-64.367
		c57.625-4.732,98.326,7.578,111.674,33.77l17.869,35.068l-189.178,39.975l-4.155-8.153c-8.104-15.906-26.771-23.127-43.423-16.796
		c-24.086,9.159-48.369,19.956-72.174,32.085c-23.807,12.131-46.814,25.431-68.382,39.532c-14.909,9.747-20.04,29.093-11.935,45.003
		l3.789,7.438L0.179,407.336L-17.672,372.306L-17.672,372.306z"/>
</g>
</svg>
